{
	"asset":{
		"generator":"Khronos glTF Blender I/O v4.4.56",
		"version":"2.0"
	},
	"extensionsUsed":[
		"KHR_materials_specular"
	],
	"scene":0,
	"scenes":[
		{
			"name":"Scene",
			"nodes":[
				0,
				1,
				2,
				3,
				4,
				5,
				6,
				7,
				8,
				9,
				10,
				11,
				12,
				13,
				14,
				15,
				16
			]
		}
	],
	"nodes":[
		{
			"mesh":0,
			"name":"Lights",
			"rotation":[
				0.70710688829422,
				0,
				0,
				0.7071066498756409
			],
			"scale":[
				0.009999999776482582,
				0.010000000707805157,
				0.010000000707805157
			]
		},
		{
			"mesh":1,
			"name":"Art_Room",
			"rotation":[
				0.70710688829422,
				0,
				0,
				0.7071066498756409
			],
			"scale":[
				0.009999999776482582,
				0.010000000707805157,
				0.010000000707805157
			]
		},
		{
			"mesh":2,
			"name":"podemium v1",
			"rotation":[
				0.491905152797699,
				0.5079659819602966,
				-0.5079659223556519,
				0.49190518260002136
			],
			"scale":[
				0.33965247869491577,
				0.33965247869491577,
				0.3396523594856262
			],
			"translation":[
				8.062128067016602,
				0.05645649507641792,
				2.7562038898468018
			]
		},
		{
			"mesh":3,
			"name":"podemium v1.001",
			"rotation":[
				0.5092846751213074,
				0.49053969979286194,
				-0.49053966999053955,
				0.5092847347259521
			],
			"scale":[
				0.3396523892879486,
				0.3396523892879486,
				0.3396523594856262
			],
			"translation":[
				8.062128067016602,
				0.05645649507641792,
				6.662066459655762
			]
		},
		{
			"mesh":4,
			"name":"podemium v1.002",
			"rotation":[
				0.707095205783844,
				0.004038392566144466,
				-0.004038392100483179,
				0.7070953249931335
			],
			"scale":[
				0.3396523594856262,
				0.3396523594856262,
				0.3396523594856262
			],
			"translation":[
				3.0813331604003906,
				0.05645649507641792,
				8.754923820495605
			]
		},
		{
			"mesh":5,
			"name":"podemium v1.003",
			"rotation":[
				0.707095205783844,
				0.004038392566144466,
				-0.004038392100483179,
				0.7070953249931335
			],
			"scale":[
				0.3396523594856262,
				0.3396523594856262,
				0.3396523594856262
			],
			"translation":[
				-0.4810049533843994,
				0.05645649507641792,
				8.754923820495605
			]
		},
		{
			"mesh":6,
			"name":"podemium v1.004",
			"rotation":[
				0.707095205783844,
				0.004038392566144466,
				-0.004038392100483179,
				0.7070953249931335
			],
			"scale":[
				0.3396523594856262,
				0.3396523594856262,
				0.3396523594856262
			],
			"translation":[
				-3.6895785331726074,
				0.05645649507641792,
				8.754923820495605
			]
		},
		{
			"mesh":7,
			"name":"podemium v1.005",
			"rotation":[
				0.707095205783844,
				0.004038392566144466,
				-0.004038392100483179,
				0.7070953249931335
			],
			"scale":[
				0.3396523594856262,
				0.3396523594856262,
				0.3396523594856262
			],
			"translation":[
				-6.694124221801758,
				0.05645649507641792,
				8.754923820495605
			]
		},
		{
			"mesh":8,
			"name":"podemium v1.006",
			"rotation":[
				0.707095205783844,
				0.004038392566144466,
				-0.004038392100483179,
				0.7070953249931335
			],
			"scale":[
				0.3396523594856262,
				0.3396523594856262,
				0.3396523594856262
			],
			"translation":[
				-10.048391342163086,
				0.05645649507641792,
				8.754923820495605
			]
		},
		{
			"mesh":9,
			"name":"podemium v1.007",
			"rotation":[
				0.707095205783844,
				0.004038392566144466,
				-0.004038392100483179,
				0.7070953249931335
			],
			"scale":[
				0.3396523594856262,
				0.3396523594856262,
				0.3396523594856262
			],
			"translation":[
				-13.43637466430664,
				0.05645649507641792,
				8.754923820495605
			]
		},
		{
			"mesh":10,
			"name":"podemium v1.008",
			"rotation":[
				0.6519945859909058,
				-0.27368414402008057,
				0.27368414402008057,
				0.6519946455955505
			],
			"scale":[
				0.3396523892879486,
				0.3396523892879486,
				0.3396523594856262
			],
			"translation":[
				-16.01827049255371,
				0.05645649507641792,
				7.510549545288086
			]
		},
		{
			"mesh":11,
			"name":"podemium v1.009",
			"rotation":[
				0.4623057544231415,
				-0.5350452661514282,
				0.5350452065467834,
				0.46230578422546387
			],
			"scale":[
				0.3396523594856262,
				0.3396523594856262,
				0.3396523594856262
			],
			"translation":[
				-16.215438842773438,
				0.056456487625837326,
				4.4753828048706055
			]
		},
		{
			"mesh":12,
			"name":"podemium v1.010",
			"rotation":[
				0.4623057544231415,
				-0.5350452661514282,
				0.5350452065467834,
				0.46230578422546387
			],
			"scale":[
				0.3396523594856262,
				0.3396523594856262,
				0.3396523594856262
			],
			"translation":[
				-16.4996337890625,
				0.05645649507641792,
				-1.1782879829406738
			]
		},
		{
			"mesh":13,
			"name":"podemium v1.011",
			"rotation":[
				0.4623057544231415,
				-0.5350452661514282,
				0.5350452065467834,
				0.46230578422546387
			],
			"scale":[
				0.3396523594856262,
				0.3396523594856262,
				0.3396523594856262
			],
			"translation":[
				-16.081274032592773,
				0.05645649507641792,
				-4.6041259765625
			]
		},
		{
			"mesh":14,
			"name":"podemium v1.012",
			"rotation":[
				0.21796678006649017,
				-0.6726741790771484,
				0.6726741194725037,
				0.21796679496765137
			],
			"scale":[
				0.3396523594856262,
				0.3396523594856262,
				0.3396523594856262
			],
			"translation":[
				-14.83305835723877,
				0.05645652487874031,
				-7.893117427825928
			]
		},
		{
			"mesh":15,
			"name":"podemium v1.013",
			"rotation":[
				0.048475779592990875,
				0.7054432034492493,
				-0.7054431438446045,
				0.048475783318281174
			],
			"scale":[
				0.3396524488925934,
				0.3396524488925934,
				0.3396523594856262
			],
			"translation":[
				-11.39500617980957,
				0.05645652487874031,
				-8.741693496704102
			]
		},
		{
			"mesh":16,
			"name":"podemium v1.014",
			"rotation":[
				0.048475779592990875,
				0.7054432034492493,
				-0.7054431438446045,
				0.048475783318281174
			],
			"scale":[
				0.3396524488925934,
				0.3396524488925934,
				0.3396523594856262
			],
			"translation":[
				-7.940146446228027,
				0.05645652487874031,
				-8.707362174987793
			]
		}
	],
	"materials":[
		{
			"doubleSided":true,
			"emissiveFactor":[
				1,
				1,
				1
			],
			"emissiveTexture":{
				"index":0
			},
			"name":"Art_Room1",
			"normalTexture":{
				"index":1
			},
			"pbrMetallicRoughness":{
				"baseColorTexture":{
					"index":2
				},
				"metallicRoughnessTexture":{
					"index":3
				}
			}
		},
		{
			"doubleSided":true,
			"extensions":{
				"KHR_materials_specular":{
					"specularFactor":0
				}
			},
			"name":"initialShadingGroup",
			"pbrMetallicRoughness":{
				"baseColorFactor":[
					0.800000011920929,
					0.800000011920929,
					0.800000011920929,
					1
				],
				"metallicFactor":0
			}
		}
	],
	"meshes":[
		{
			"name":"Mesh",
			"primitives":[
				{
					"attributes":{
						"POSITION":0,
						"NORMAL":1,
						"TEXCOORD_0":2
					},
					"indices":3,
					"material":0
				}
			]
		},
		{
			"name":"Mesh.001",
			"primitives":[
				{
					"attributes":{
						"POSITION":4,
						"NORMAL":5,
						"TEXCOORD_0":6
					},
					"indices":7,
					"material":0
				}
			]
		},
		{
			"name":"podemium v1",
			"primitives":[
				{
					"attributes":{
						"POSITION":8,
						"NORMAL":9,
						"TEXCOORD_0":10
					},
					"indices":11,
					"material":1
				}
			]
		},
		{
			"name":"podemium v1.001",
			"primitives":[
				{
					"attributes":{
						"POSITION":12,
						"NORMAL":13,
						"TEXCOORD_0":14
					},
					"indices":11,
					"material":1
				}
			]
		},
		{
			"name":"podemium v1.002",
			"primitives":[
				{
					"attributes":{
						"POSITION":15,
						"NORMAL":16,
						"TEXCOORD_0":17
					},
					"indices":11,
					"material":1
				}
			]
		},
		{
			"name":"podemium v1.003",
			"primitives":[
				{
					"attributes":{
						"POSITION":18,
						"NORMAL":19,
						"TEXCOORD_0":20
					},
					"indices":11,
					"material":1
				}
			]
		},
		{
			"name":"podemium v1.004",
			"primitives":[
				{
					"attributes":{
						"POSITION":21,
						"NORMAL":22,
						"TEXCOORD_0":23
					},
					"indices":11,
					"material":1
				}
			]
		},
		{
			"name":"podemium v1.005",
			"primitives":[
				{
					"attributes":{
						"POSITION":24,
						"NORMAL":25,
						"TEXCOORD_0":26
					},
					"indices":11,
					"material":1
				}
			]
		},
		{
			"name":"podemium v1.006",
			"primitives":[
				{
					"attributes":{
						"POSITION":27,
						"NORMAL":28,
						"TEXCOORD_0":29
					},
					"indices":11,
					"material":1
				}
			]
		},
		{
			"name":"podemium v1.007",
			"primitives":[
				{
					"attributes":{
						"POSITION":30,
						"NORMAL":31,
						"TEXCOORD_0":32
					},
					"indices":11,
					"material":1
				}
			]
		},
		{
			"name":"podemium v1.008",
			"primitives":[
				{
					"attributes":{
						"POSITION":33,
						"NORMAL":34,
						"TEXCOORD_0":35
					},
					"indices":11,
					"material":1
				}
			]
		},
		{
			"name":"podemium v1.009",
			"primitives":[
				{
					"attributes":{
						"POSITION":36,
						"NORMAL":37,
						"TEXCOORD_0":38
					},
					"indices":11,
					"material":1
				}
			]
		},
		{
			"name":"podemium v1.010",
			"primitives":[
				{
					"attributes":{
						"POSITION":39,
						"NORMAL":40,
						"TEXCOORD_0":41
					},
					"indices":11,
					"material":1
				}
			]
		},
		{
			"name":"podemium v1.011",
			"primitives":[
				{
					"attributes":{
						"POSITION":42,
						"NORMAL":43,
						"TEXCOORD_0":44
					},
					"indices":11,
					"material":1
				}
			]
		},
		{
			"name":"podemium v1.012",
			"primitives":[
				{
					"attributes":{
						"POSITION":45,
						"NORMAL":46,
						"TEXCOORD_0":47
					},
					"indices":11,
					"material":1
				}
			]
		},
		{
			"name":"podemium v1.013",
			"primitives":[
				{
					"attributes":{
						"POSITION":48,
						"NORMAL":49,
						"TEXCOORD_0":50
					},
					"indices":11,
					"material":1
				}
			]
		},
		{
			"name":"podemium v1.014",
			"primitives":[
				{
					"attributes":{
						"POSITION":51,
						"NORMAL":52,
						"TEXCOORD_0":53
					},
					"indices":11,
					"material":1
				}
			]
		}
	],
	"textures":[
		{
			"sampler":0,
			"source":0
		},
		{
			"sampler":0,
			"source":1
		},
		{
			"sampler":0,
			"source":2
		},
		{
			"sampler":0,
			"source":3
		}
	],
	"images":[
		{
			"mimeType":"image/png",
			"name":"Art room01_Art_Room1_Emissive",
			"uri":"Art%20room01_Art_Room1_Emissive.png"
		},
		{
			"mimeType":"image/png",
			"name":"Art room01_Art_Room1_Normal",
			"uri":"Art%20room01_Art_Room1_Normal.png"
		},
		{
			"mimeType":"image/png",
			"name":"Art room01_Art_Room1_BaseColor",
			"uri":"Art%20room01_Art_Room1_BaseColor.png"
		},
		{
			"mimeType":"image/png",
			"name":"Art room01_Art_Room1_Metallic",
			"uri":"Art%20room01_Art_Room1_Metallic.png"
		}
	],
	"accessors":[
		{
			"bufferView":0,
			"componentType":5126,
			"count":1692,
			"max":[
				963.5335693359375,
				972.0582885742188,
				-426.13079833984375
			],
			"min":[
				-1665.2777099609375,
				-966.3106079101562,
				-435.44580078125
			],
			"type":"VEC3"
		},
		{
			"bufferView":1,
			"componentType":5126,
			"count":1692,
			"type":"VEC3"
		},
		{
			"bufferView":2,
			"componentType":5126,
			"count":1692,
			"type":"VEC2"
		},
		{
			"bufferView":3,
			"componentType":5123,
			"count":5040,
			"type":"SCALAR"
		},
		{
			"bufferView":4,
			"componentType":5126,
			"count":1432,
			"max":[
				1013.659912109375,
				1014.4767456054688,
				0
			],
			"min":[
				-1750.5885009765625,
				-1014.4767456054688,
				-445.614990234375
			],
			"type":"VEC3"
		},
		{
			"bufferView":5,
			"componentType":5126,
			"count":1432,
			"type":"VEC3"
		},
		{
			"bufferView":6,
			"componentType":5126,
			"count":1432,
			"type":"VEC2"
		},
		{
			"bufferView":7,
			"componentType":5123,
			"count":2532,
			"type":"SCALAR"
		},
		{
			"bufferView":8,
			"componentType":5126,
			"count":302,
			"max":[
				1.810958981513977,
				1.3460919857025146,
				0.1891849935054779
			],
			"min":[
				-1.8180500268936157,
				-1.3460919857025146,
				-3.5483710765838623
			],
			"type":"VEC3"
		},
		{
			"bufferView":9,
			"componentType":5126,
			"count":302,
			"type":"VEC3"
		},
		{
			"bufferView":10,
			"componentType":5126,
			"count":302,
			"type":"VEC2"
		},
		{
			"bufferView":11,
			"componentType":5123,
			"count":660,
			"type":"SCALAR"
		},
		{
			"bufferView":12,
			"componentType":5126,
			"count":302,
			"max":[
				1.810958981513977,
				1.3460919857025146,
				0.1891849935054779
			],
			"min":[
				-1.8180500268936157,
				-1.3460919857025146,
				-3.5483710765838623
			],
			"type":"VEC3"
		},
		{
			"bufferView":13,
			"componentType":5126,
			"count":302,
			"type":"VEC3"
		},
		{
			"bufferView":14,
			"componentType":5126,
			"count":302,
			"type":"VEC2"
		},
		{
			"bufferView":15,
			"componentType":5126,
			"count":302,
			"max":[
				1.810958981513977,
				1.3460919857025146,
				0.1891849935054779
			],
			"min":[
				-1.8180500268936157,
				-1.3460919857025146,
				-3.5483710765838623
			],
			"type":"VEC3"
		},
		{
			"bufferView":16,
			"componentType":5126,
			"count":302,
			"type":"VEC3"
		},
		{
			"bufferView":17,
			"componentType":5126,
			"count":302,
			"type":"VEC2"
		},
		{
			"bufferView":18,
			"componentType":5126,
			"count":302,
			"max":[
				1.810958981513977,
				1.3460919857025146,
				0.1891849935054779
			],
			"min":[
				-1.8180500268936157,
				-1.3460919857025146,
				-3.5483710765838623
			],
			"type":"VEC3"
		},
		{
			"bufferView":19,
			"componentType":5126,
			"count":302,
			"type":"VEC3"
		},
		{
			"bufferView":20,
			"componentType":5126,
			"count":302,
			"type":"VEC2"
		},
		{
			"bufferView":21,
			"componentType":5126,
			"count":302,
			"max":[
				1.810958981513977,
				1.3460919857025146,
				0.1891849935054779
			],
			"min":[
				-1.8180500268936157,
				-1.3460919857025146,
				-3.5483710765838623
			],
			"type":"VEC3"
		},
		{
			"bufferView":22,
			"componentType":5126,
			"count":302,
			"type":"VEC3"
		},
		{
			"bufferView":23,
			"componentType":5126,
			"count":302,
			"type":"VEC2"
		},
		{
			"bufferView":24,
			"componentType":5126,
			"count":302,
			"max":[
				1.810958981513977,
				1.3460919857025146,
				0.1891849935054779
			],
			"min":[
				-1.8180500268936157,
				-1.3460919857025146,
				-3.5483710765838623
			],
			"type":"VEC3"
		},
		{
			"bufferView":25,
			"componentType":5126,
			"count":302,
			"type":"VEC3"
		},
		{
			"bufferView":26,
			"componentType":5126,
			"count":302,
			"type":"VEC2"
		},
		{
			"bufferView":27,
			"componentType":5126,
			"count":302,
			"max":[
				1.810958981513977,
				1.3460919857025146,
				0.1891849935054779
			],
			"min":[
				-1.8180500268936157,
				-1.3460919857025146,
				-3.5483710765838623
			],
			"type":"VEC3"
		},
		{
			"bufferView":28,
			"componentType":5126,
			"count":302,
			"type":"VEC3"
		},
		{
			"bufferView":29,
			"componentType":5126,
			"count":302,
			"type":"VEC2"
		},
		{
			"bufferView":30,
			"componentType":5126,
			"count":302,
			"max":[
				1.810958981513977,
				1.3460919857025146,
				0.1891849935054779
			],
			"min":[
				-1.8180500268936157,
				-1.3460919857025146,
				-3.5483710765838623
			],
			"type":"VEC3"
		},
		{
			"bufferView":31,
			"componentType":5126,
			"count":302,
			"type":"VEC3"
		},
		{
			"bufferView":32,
			"componentType":5126,
			"count":302,
			"type":"VEC2"
		},
		{
			"bufferView":33,
			"componentType":5126,
			"count":302,
			"max":[
				1.810958981513977,
				1.3460919857025146,
				0.1891849935054779
			],
			"min":[
				-1.8180500268936157,
				-1.3460919857025146,
				-3.5483710765838623
			],
			"type":"VEC3"
		},
		{
			"bufferView":34,
			"componentType":5126,
			"count":302,
			"type":"VEC3"
		},
		{
			"bufferView":35,
			"componentType":5126,
			"count":302,
			"type":"VEC2"
		},
		{
			"bufferView":36,
			"componentType":5126,
			"count":302,
			"max":[
				1.810958981513977,
				1.3460919857025146,
				0.1891849935054779
			],
			"min":[
				-1.8180500268936157,
				-1.3460919857025146,
				-3.5483710765838623
			],
			"type":"VEC3"
		},
		{
			"bufferView":37,
			"componentType":5126,
			"count":302,
			"type":"VEC3"
		},
		{
			"bufferView":38,
			"componentType":5126,
			"count":302,
			"type":"VEC2"
		},
		{
			"bufferView":39,
			"componentType":5126,
			"count":302,
			"max":[
				1.810958981513977,
				1.3460919857025146,
				0.1891849935054779
			],
			"min":[
				-1.8180500268936157,
				-1.3460919857025146,
				-3.5483710765838623
			],
			"type":"VEC3"
		},
		{
			"bufferView":40,
			"componentType":5126,
			"count":302,
			"type":"VEC3"
		},
		{
			"bufferView":41,
			"componentType":5126,
			"count":302,
			"type":"VEC2"
		},
		{
			"bufferView":42,
			"componentType":5126,
			"count":302,
			"max":[
				1.810958981513977,
				1.3460919857025146,
				0.1891849935054779
			],
			"min":[
				-1.8180500268936157,
				-1.3460919857025146,
				-3.5483710765838623
			],
			"type":"VEC3"
		},
		{
			"bufferView":43,
			"componentType":5126,
			"count":302,
			"type":"VEC3"
		},
		{
			"bufferView":44,
			"componentType":5126,
			"count":302,
			"type":"VEC2"
		},
		{
			"bufferView":45,
			"componentType":5126,
			"count":302,
			"max":[
				1.810958981513977,
				1.3460919857025146,
				0.1891849935054779
			],
			"min":[
				-1.8180500268936157,
				-1.3460919857025146,
				-3.5483710765838623
			],
			"type":"VEC3"
		},
		{
			"bufferView":46,
			"componentType":5126,
			"count":302,
			"type":"VEC3"
		},
		{
			"bufferView":47,
			"componentType":5126,
			"count":302,
			"type":"VEC2"
		},
		{
			"bufferView":48,
			"componentType":5126,
			"count":302,
			"max":[
				1.810958981513977,
				1.3460919857025146,
				0.1891849935054779
			],
			"min":[
				-1.8180500268936157,
				-1.3460919857025146,
				-3.5483710765838623
			],
			"type":"VEC3"
		},
		{
			"bufferView":49,
			"componentType":5126,
			"count":302,
			"type":"VEC3"
		},
		{
			"bufferView":50,
			"componentType":5126,
			"count":302,
			"type":"VEC2"
		},
		{
			"bufferView":51,
			"componentType":5126,
			"count":302,
			"max":[
				1.810958981513977,
				1.3460919857025146,
				0.1891849935054779
			],
			"min":[
				-1.8180500268936157,
				-1.3460919857025146,
				-3.5483710765838623
			],
			"type":"VEC3"
		},
		{
			"bufferView":52,
			"componentType":5126,
			"count":302,
			"type":"VEC3"
		},
		{
			"bufferView":53,
			"componentType":5126,
			"count":302,
			"type":"VEC2"
		}
	],
	"bufferViews":[
		{
			"buffer":0,
			"byteLength":20304,
			"byteOffset":0,
			"target":34962
		},
		{
			"buffer":0,
			"byteLength":20304,
			"byteOffset":20304,
			"target":34962
		},
		{
			"buffer":0,
			"byteLength":13536,
			"byteOffset":40608,
			"target":34962
		},
		{
			"buffer":0,
			"byteLength":10080,
			"byteOffset":54144,
			"target":34963
		},
		{
			"buffer":0,
			"byteLength":17184,
			"byteOffset":64224,
			"target":34962
		},
		{
			"buffer":0,
			"byteLength":17184,
			"byteOffset":81408,
			"target":34962
		},
		{
			"buffer":0,
			"byteLength":11456,
			"byteOffset":98592,
			"target":34962
		},
		{
			"buffer":0,
			"byteLength":5064,
			"byteOffset":110048,
			"target":34963
		},
		{
			"buffer":0,
			"byteLength":3624,
			"byteOffset":115112,
			"target":34962
		},
		{
			"buffer":0,
			"byteLength":3624,
			"byteOffset":118736,
			"target":34962
		},
		{
			"buffer":0,
			"byteLength":2416,
			"byteOffset":122360,
			"target":34962
		},
		{
			"buffer":0,
			"byteLength":1320,
			"byteOffset":124776,
			"target":34963
		},
		{
			"buffer":0,
			"byteLength":3624,
			"byteOffset":126096,
			"target":34962
		},
		{
			"buffer":0,
			"byteLength":3624,
			"byteOffset":129720,
			"target":34962
		},
		{
			"buffer":0,
			"byteLength":2416,
			"byteOffset":133344,
			"target":34962
		},
		{
			"buffer":0,
			"byteLength":3624,
			"byteOffset":135760,
			"target":34962
		},
		{
			"buffer":0,
			"byteLength":3624,
			"byteOffset":139384,
			"target":34962
		},
		{
			"buffer":0,
			"byteLength":2416,
			"byteOffset":143008,
			"target":34962
		},
		{
			"buffer":0,
			"byteLength":3624,
			"byteOffset":145424,
			"target":34962
		},
		{
			"buffer":0,
			"byteLength":3624,
			"byteOffset":149048,
			"target":34962
		},
		{
			"buffer":0,
			"byteLength":2416,
			"byteOffset":152672,
			"target":34962
		},
		{
			"buffer":0,
			"byteLength":3624,
			"byteOffset":155088,
			"target":34962
		},
		{
			"buffer":0,
			"byteLength":3624,
			"byteOffset":158712,
			"target":34962
		},
		{
			"buffer":0,
			"byteLength":2416,
			"byteOffset":162336,
			"target":34962
		},
		{
			"buffer":0,
			"byteLength":3624,
			"byteOffset":164752,
			"target":34962
		},
		{
			"buffer":0,
			"byteLength":3624,
			"byteOffset":168376,
			"target":34962
		},
		{
			"buffer":0,
			"byteLength":2416,
			"byteOffset":172000,
			"target":34962
		},
		{
			"buffer":0,
			"byteLength":3624,
			"byteOffset":174416,
			"target":34962
		},
		{
			"buffer":0,
			"byteLength":3624,
			"byteOffset":178040,
			"target":34962
		},
		{
			"buffer":0,
			"byteLength":2416,
			"byteOffset":181664,
			"target":34962
		},
		{
			"buffer":0,
			"byteLength":3624,
			"byteOffset":184080,
			"target":34962
		},
		{
			"buffer":0,
			"byteLength":3624,
			"byteOffset":187704,
			"target":34962
		},
		{
			"buffer":0,
			"byteLength":2416,
			"byteOffset":191328,
			"target":34962
		},
		{
			"buffer":0,
			"byteLength":3624,
			"byteOffset":193744,
			"target":34962
		},
		{
			"buffer":0,
			"byteLength":3624,
			"byteOffset":197368,
			"target":34962
		},
		{
			"buffer":0,
			"byteLength":2416,
			"byteOffset":200992,
			"target":34962
		},
		{
			"buffer":0,
			"byteLength":3624,
			"byteOffset":203408,
			"target":34962
		},
		{
			"buffer":0,
			"byteLength":3624,
			"byteOffset":207032,
			"target":34962
		},
		{
			"buffer":0,
			"byteLength":2416,
			"byteOffset":210656,
			"target":34962
		},
		{
			"buffer":0,
			"byteLength":3624,
			"byteOffset":213072,
			"target":34962
		},
		{
			"buffer":0,
			"byteLength":3624,
			"byteOffset":216696,
			"target":34962
		},
		{
			"buffer":0,
			"byteLength":2416,
			"byteOffset":220320,
			"target":34962
		},
		{
			"buffer":0,
			"byteLength":3624,
			"byteOffset":222736,
			"target":34962
		},
		{
			"buffer":0,
			"byteLength":3624,
			"byteOffset":226360,
			"target":34962
		},
		{
			"buffer":0,
			"byteLength":2416,
			"byteOffset":229984,
			"target":34962
		},
		{
			"buffer":0,
			"byteLength":3624,
			"byteOffset":232400,
			"target":34962
		},
		{
			"buffer":0,
			"byteLength":3624,
			"byteOffset":236024,
			"target":34962
		},
		{
			"buffer":0,
			"byteLength":2416,
			"byteOffset":239648,
			"target":34962
		},
		{
			"buffer":0,
			"byteLength":3624,
			"byteOffset":242064,
			"target":34962
		},
		{
			"buffer":0,
			"byteLength":3624,
			"byteOffset":245688,
			"target":34962
		},
		{
			"buffer":0,
			"byteLength":2416,
			"byteOffset":249312,
			"target":34962
		},
		{
			"buffer":0,
			"byteLength":3624,
			"byteOffset":251728,
			"target":34962
		},
		{
			"buffer":0,
			"byteLength":3624,
			"byteOffset":255352,
			"target":34962
		},
		{
			"buffer":0,
			"byteLength":2416,
			"byteOffset":258976,
			"target":34962
		}
	],
	"samplers":[
		{
			"magFilter":9729,
			"minFilter":9987
		}
	],
	"buffers":[
		{
			"byteLength":261392,
			"uri":"uploads_files_5155429_Art%2BGallery%2BGLB.bin"
		}
	]
}
